<?xml version="1.0" encoding="UTF-8" standalone="no"?>
<svg width="45px" height="36px" viewBox="0 0 45 36" version="1.1" xmlns="http://www.w3.org/2000/svg" xmlns:xlink="http://www.w3.org/1999/xlink">
    <!-- Generator: Sketch 39.1 (31720) - http://www.bohemiancoding.com/sketch -->
    <title>logo</title>
    <desc>Created with Sketch.</desc>
    <defs></defs>
    <g id="Page-1" stroke="none" stroke-width="1" fill="none" fill-rule="evenodd">
        <g id="Landing-page" transform="translate(-229.000000, -43.000000)">
            <g id="Header">
                <g id="logo" transform="translate(229.000000, 44.000000)">
                    <g id="heart" transform="translate(8.000000, 8.000000)" fill="#FFFFFF">
                        <path d="M11.2259289,0.932392161 C10.4120883,0.569190512 9.57483987,0.3 8.88092929,0.3 C3.98349128,0.3 0.0133333333,4.28359974 0.0133333333,9.19761905 C0.0133333333,14.1116384 14.5,26.2 14.5,26.2 C14.5,26.2 28.9866667,14.1116384 28.9866667,9.19761905 C28.9866667,4.28359974 25.0165087,0.3 20.1190707,0.3 C19.4856645,0.3 18.7328268,0.524293874 17.9873787,0.839646271 L17.6508952,1.96125806 C17.5946371,2.14673387 17.4232258,2.27419355 17.2298387,2.27419355 L16.7903226,2.27419355 L16.7903226,3.97687903 C19.3465484,4.88491935 21.1854839,7.32159677 21.1854839,10.1854839 C21.1854839,13.2040806 15.6475806,22.7477339 15.412,23.1520887 C15.3328871,23.2874597 15.1878468,23.3709677 15.0322581,23.3709677 L15.0322581,12.8225806 C15.0322581,12.8014839 15.0225887,12.7839032 15.0199516,12.7636855 C15.7829516,12.5720565 16.3508065,11.8872903 16.3508065,11.0645161 C16.3508065,10.0931855 15.5631935,9.30645161 14.5927419,9.30645161 C13.6214113,9.30645161 12.8346774,10.0931855 12.8346774,11.0645161 C12.8346774,11.8872903 13.4016532,12.5720565 14.1646532,12.7645645 C14.1611371,12.7839032 14.1532258,12.8014839 14.1532258,12.8225806 L14.1532258,23.3709677 C13.9993952,23.3709677 13.8569919,23.2909758 13.777879,23.16 C13.5414194,22.7723468 8,13.6356855 8,10.1854839 C8,7.32159677 9.83805645,4.88491935 12.3951613,3.97687903 L12.3951613,2.27419355 L11.9556452,2.27419355 C11.761379,2.27419355 11.5899677,2.14673387 11.5345887,1.96125806 L11.2259289,0.932392161 Z" id="Oval-1"></path>
                    </g>
                    <g id="headphones">
                        <path d="M41,18.5 C41,8.28273213 32.7172679,0 22.5,0 C12.2827321,0 4,8.28273213 4,18.5" id="Oval-1" stroke="#FFFFFF" stroke-width="2"></path>
                        <path d="M6,13 C2.6862915,13 0,15.6862915 0,19 C0,22.3137085 2.6862915,25 6,25 L6,25" id="Oval-2" fill="#FFFFFF"></path>
                        <path d="M45,13 C41.6862915,13 39,15.6862915 39,19 C39,22.3137085 41.6862915,25 45,25 L45,25" id="Oval-2-Copy" fill="#FFFFFF" transform="translate(42.000000, 19.000000) scale(-1, 1) translate(-42.000000, -19.000000) "></path>
                    </g>
                </g>
            </g>
        </g>
    </g>
</svg>